<?xml version="1.0" encoding="utf-8"?>
<!-- Generator: Adobe Illustrator 15.1.0, SVG Export Plug-In . SVG Version: 6.00 Build 0)  -->
<!DOCTYPE svg PUBLIC "-//W3C//DTD SVG 1.1//EN" "http://www.w3.org/Graphics/SVG/1.1/DTD/svg11.dtd">
<svg version="1.1" id="Layer_1" xmlns="http://www.w3.org/2000/svg" xmlns:xlink="http://www.w3.org/1999/xlink" x="0px" y="0px"
	 width="500px" height="500px" viewBox="0 0 500 500" enable-background="new 0 0 500 500" xml:space="preserve">
<circle fill="#27AAE1" stroke="#27AAE1" stroke-miterlimit="10" cx="246.692" cy="80.853" r="53.676"/>
<circle fill="#27AAE1" stroke="#27AAE1" stroke-miterlimit="10" cx="246.692" cy="197.424" r="73.896"/>
<circle fill="#27AAE1" stroke="#27AAE1" stroke-miterlimit="10" cx="246.692" cy="356.249" r="106.25"/>
<ellipse fill="#27AAE1" stroke="#27AAE1" stroke-miterlimit="10" cx="140.375" cy="163.941" rx="63.89" ry="12.5"/>
<rect x="76.324" y="58.794" fill="#C49A6C" stroke="#C49A6C" stroke-miterlimit="10" width="11.765" height="386.766"/>
<rect x="62.353" y="13.206" fill="#C49A6C" stroke="#C49A6C" stroke-miterlimit="10" width="38.972" height="72.794"/>
<ellipse fill="#27AAE1" stroke="#27AAE1" stroke-miterlimit="10" cx="355.552" cy="166.118" rx="63.89" ry="12.5"/>
<rect x="62.353" y="66.147" fill="#FFF200" stroke="#FFF200" stroke-miterlimit="10" width="38.972" height="19.853"/>
<path fill="none" stroke="#000000" stroke-miterlimit="10" d="M204.265,96.294c0,11.38,18.977,20.588,42.427,20.588"/>
<path fill="none" stroke="#000000" stroke-miterlimit="10" d="M291.662,96.294c0,11.38-20.114,20.588-44.972,20.588"/>
<ellipse fill="none" stroke="#000000" stroke-miterlimit="10" cx="231.048" cy="63.941" rx="5.57" ry="5.147"/>
<ellipse fill="none" stroke="#000000" stroke-miterlimit="10" cx="255.809" cy="63.941" rx="5.81" ry="5.147"/>
<line fill="none" stroke="#000000" stroke-miterlimit="10" x1="246.691" y1="140.412" x2="246.692" y2="250"/>
<rect x="200.588" y="20.559" stroke="#000000" stroke-miterlimit="10" width="91.074" height="21.323"/>
<rect x="225.478" y="8.059" stroke="#000000" stroke-miterlimit="10" width="36.14" height="16.177"/>
</svg>
