<?xml version="1.0" encoding="utf-8"?>
<!-- Generator: Adobe Illustrator 15.1.0, SVG Export Plug-In . SVG Version: 6.00 Build 0)  -->
<!DOCTYPE svg PUBLIC "-//W3C//DTD SVG 1.1//EN" "http://www.w3.org/Graphics/SVG/1.1/DTD/svg11.dtd">
<svg version="1.1" id="Layer_1" xmlns="http://www.w3.org/2000/svg" xmlns:xlink="http://www.w3.org/1999/xlink" x="0px" y="0px"
	 width="256px" height="256px" viewBox="0 0 256 256" enable-background="new 0 0 256 256" xml:space="preserve">
<g>
	<g>
		<path d="M66.637,77.984c31.069,0,62.138,0,93.208,0c0.602,0,2.096-0.911,0.801-0.911c-31.069,0-62.138,0-93.208,0
			C66.836,77.073,65.342,77.984,66.637,77.984L66.637,77.984z"/>
	</g>
</g>
<g>
	<g>
		<path d="M66.163,77.6c-16.525,16.525-33.05,33.05-49.575,49.576c-0.412,0.412,1.422,0.186,1.75-0.143
			c16.525-16.525,33.05-33.05,49.575-49.576C68.325,77.045,66.491,77.271,66.163,77.6L66.163,77.6z"/>
	</g>
</g>
<g>
	<g>
		<path d="M16.554,127.441c16.792,16.792,33.585,33.584,50.377,50.377c0.373,0.373,2.154-0.336,1.816-0.674
			c-16.792-16.792-33.585-33.585-50.377-50.377C17.998,126.394,16.216,127.103,16.554,127.441L16.554,127.441z"/>
	</g>
</g>
<g>
	<g>
		<path d="M67.21,177.864c30.802,0,61.604,0,92.406,0c0.39,0,2.196-0.766,1.258-0.766c-30.802,0-61.603,0-92.405,0
			C68.079,177.099,66.273,177.864,67.21,177.864L67.21,177.864z"/>
	</g>
</g>
<g>
	<g>
		<path d="M196.412,167.762c-24.557,0-49.113,0-73.67,0c-0.739,0-2.051,1.121-0.744,1.121c24.557,0,49.114,0,73.67,0
			C196.407,168.883,197.719,167.762,196.412,167.762L196.412,167.762z"/>
	</g>
</g>
<g>
	<g>
		<path d="M196.828,168.533c13.062-13.062,26.123-26.123,39.184-39.184c0.828-0.829-1.063-0.935-1.576-0.421
			c-13.062,13.061-26.123,26.123-39.184,39.183C194.424,168.94,196.314,169.046,196.828,168.533L196.828,168.533z"/>
	</g>
</g>
<g>
	<g>
		<path d="M236.113,128.733c-13.272-13.273-26.545-26.545-39.817-39.818c-0.559-0.559-2.393,0.198-1.779,0.811
			c13.272,13.273,26.545,26.545,39.817,39.818C234.893,130.104,236.727,129.347,236.113,128.733L236.113,128.733z"/>
	</g>
</g>
<g>
	<g>
		<path d="M195.771,88.729c-24.346,0-48.691,0-73.037,0c-0.78,0-2.035,1.185-0.728,1.185c24.346,0,48.691,0,73.036,0
			C195.823,89.913,197.077,88.729,195.771,88.729L195.771,88.729z"/>
	</g>
</g>
<g>
	<path d="M71.401,131.262l-2.976,6.408h-3.408l-8.305-18.002h5.184l5.088,11.018l3.433-7.489h1.992l3.432,7.489l5.112-11.018h5.185
		L77.81,137.67h-3.408L71.401,131.262z"/>
	<path d="M96.097,119.668c4.968,0,9.001,4.056,9.001,9.025c0,4.967-4.033,8.977-9.001,8.977s-8.977-4.01-8.977-8.977
		C87.12,123.724,91.128,119.668,96.097,119.668z M96.097,124.372c-2.352,0-4.272,1.92-4.272,4.296c0,2.353,1.92,4.296,4.272,4.296
		c2.376,0,4.296-1.943,4.296-4.296C100.393,126.292,98.473,124.372,96.097,124.372z"/>
	<path d="M116.641,119.668c4.969,0,9.001,4.056,9.001,9.025c0,4.967-4.032,8.977-9.001,8.977c-4.968,0-8.977-4.01-8.977-8.977
		C107.664,123.724,111.672,119.668,116.641,119.668z M116.641,124.372c-2.352,0-4.272,1.92-4.272,4.296
		c0,2.353,1.92,4.296,4.272,4.296c2.376,0,4.296-1.943,4.296-4.296C120.937,126.292,119.017,124.372,116.641,124.372z"/>
	<path d="M128.928,119.668h6.673c4.968,0,9,4.032,9,9s-4.032,9.001-9,9.001h-6.673V119.668z M133.632,133.014h1.992
		c2.353,0,4.272-1.92,4.272-4.273c0-2.328-1.92-4.249-4.272-4.249h-1.992V133.014z"/>
	<path d="M165.265,119.668l-8.209,8.233l9.745,9.769h-6.673l-6.408-6.385l-1.128,1.152v5.232h-4.729v-18.002h4.729v6.072
		l6.049-6.072H165.265z"/>
	<path d="M178.128,131.045v6.625h-4.681v-6.625l-6.576-11.377h5.448l3.456,6l3.48-6h5.448L178.128,131.045z"/>
	<path d="M186.742,119.668h11.185v3.912h-6.456v2.928h5.712v3.984h-5.712v3.313h6.456v3.865h-11.185V119.668z"/>
</g>
</svg>
